<svg aria-hidden="true" style="width:0;height:0;position:absolute;overflow:hidden" xmlns="http://www.w3.org/2000/svg"><defs><symbol id="icon-book" viewBox="0 0 32 32"><path d="M22 6a6 6 0 1 0-12 0 6 6 0 0 0 12 0zm-7.401 9.068c-3.708-2.268-9.714-2.894-12.736-3.066C.845 11.944 0 12.719 0 13.695V27.62c0 .896.724 1.643 1.655 1.691 2.729.143 8.251.667 12.066 2.589.585.295 1.28-.107 1.28-.741v-15.38c0-.3-.159-.564-.398-.71l-.004-.002zm15.539-3.065c-3.022.172-9.029.795-12.736 3.066a.85.85 0 0 0-.401.721v15.369c0 .637.697 1.04 1.284.744 3.815-1.92 9.333-2.445 12.061-2.587.931-.048 1.655-.795 1.655-1.691V13.699c0-.976-.847-1.751-1.862-1.693z"/></symbol><symbol id="icon-facebook" viewBox="0 0 32 32"><path d="M16 1.229C7.842 1.229 1.229 7.842 1.229 16S7.842 30.771 16 30.771 30.771 24.158 30.771 16 24.158 1.229 16 1.229zm4.844 15.594c-.593-.01-1.136.007-1.825-.022-.112-.005-1.908.022-1.903.054.131.799-.057 1.647-.046 2.455.007.471.145 4.729.081 6.3l-3.559.033c-.015-1.338.051-2.713-.007-4.477-.012-.363-.024-4.18-.066-4.38l-2.308.016s-.01-1.409-.01-1.885v-1.404s1.836-.102 2.363-.148c0 0 .054-1.787.127-2.366.084-.661.092-1.329.481-1.914.711-1.071 1.413-2.014 2.721-2.299.495-.108 3.757-.749 3.878-.222l-.074 3.177c-.887 0-1.95-.09-2.855.582-.504.375-.643.687-.694 1.304-.03.359-.037 1.811-.037 1.811.478.068 1.186.038 1.7 0 .58-.043 2.071.111 2.071.111-.001.961-.039 3.18-.036 3.275z"/></symbol><symbol id="icon-house" viewBox="0 0 32 32"><path fill="#fff" style="fill:var(--color1,#fff)" d="M31.909 7.515v1.061a.53.53 0 0 1-.53.53h-1.59v.795a.795.795 0 0 1-.795.795H3.008a.795.795 0 0 1-.795-.795v-.795H.622a.53.53 0 0 1-.53-.53V7.515a.53.53 0 0 1 .324-.488l.004-.001 15.378-5.834a.532.532 0 0 1 .409.002l-.003-.001 15.379 5.834c.193.082.327.27.327.489v.001zm-1.59 20.151H1.682a1.59 1.59 0 0 0-1.59 1.59v1.062c0 .293.237.53.53.53h30.757a.53.53 0 0 0 .53-.53v-1.061a1.59 1.59 0 0 0-1.59-1.59zM5.394 11.758v12.727H3.008a.795.795 0 0 0-.795.795v1.326h27.575V25.28a.795.795 0 0 0-.795-.795h-2.387V11.758h-4.242v12.727h-4.242V11.758H13.88v12.727H9.639V11.758H5.394z"/></symbol><symbol id="icon-linkedin" viewBox="0 0 31 31"><path d="M7.023 31V10.56H.666V31h6.357ZM3.811 7.826c2.05 0 3.691-1.709 3.691-3.76 0-1.982-1.64-3.623-3.691-3.623C1.828.443.188 2.084.188 4.066c0 2.051 1.64 3.76 3.623 3.76ZM30.744 31h.069V19.79c0-5.47-1.231-9.708-7.657-9.708-3.076 0-5.127 1.709-6.015 3.281h-.069V10.56h-6.084V31h6.358V20.883c0-2.666.478-5.195 3.76-5.195 3.28 0 3.35 3.007 3.35 5.4V31h6.288Z"/></symbol><symbol id="icon-pen" viewBox="0 0 32 32"><path d="m31.119 8.881-2.881 2.881a.749.749 0 0 1-1.062 0l-6.938-6.938a.749.749 0 0 1 0-1.062L23.119.881c.544-.542 1.294-.877 2.122-.877s1.578.335 2.122.877l3.756 3.756c.544.542.881 1.293.881 2.122s-.337 1.58-.881 2.122zM17.763 6.237 1.351 22.649.025 30.244a1.501 1.501 0 0 0 1.737 1.737l7.594-1.331 16.412-16.411a.75.75 0 0 0 0-1.064l-6.937-6.938a.758.758 0 0 0-1.07 0zM7.756 21.243a.87.87 0 0 1 0-1.237l9.626-9.626a.87.87 0 0 1 1.237 0 .87.87 0 0 1 0 1.238l-9.625 9.625a.87.87 0 0 1-1.238 0zM5.5 26.501h2.999v2.267l-4.03.707-1.944-1.944.706-4.031H5.5v3z"/></symbol><symbol id="icon-twitter" viewBox="0 0 32 32"><path d="M.25 27.531c3.475.313 6.606-.563 9.456-2.7-2.981-.262-4.975-1.75-6.088-4.537.975.119 1.888.15 2.856-.113-3.212-1-4.925-3.1-5.156-6.488.962.45 1.869.775 2.938.787-1.906-1.431-2.881-3.287-2.844-5.625a6.06 6.06 0 0 1 .875-3.044c3.531 4.131 7.962 6.419 13.419 6.8-.031-.238-.05-.425-.075-.619-.45-3.463 1.8-6.612 5.238-7.269 2.156-.412 4.063.156 5.675 1.644.25.225.462.275.775.194a15.595 15.595 0 0 0 3.606-1.406c-.444 1.463-1.356 2.563-2.594 3.488.281-.05.569-.088.85-.144a14.831 14.831 0 0 0 1.712-.469c.281-.094.563-.2.894-.256-.163.225-.319.463-.494.681a14.599 14.599 0 0 1-2.481 2.444.494.494 0 0 0-.169.35c.05 2.219-.262 4.381-.981 6.481-1.413 4.137-3.875 7.488-7.569 9.881-1.825 1.181-3.819 1.956-5.95 2.406a19.646 19.646 0 0 1-6.369.275 17.623 17.623 0 0 1-6.081-1.869c-.506-.256-.994-.544-1.488-.819.019-.025.031-.05.044-.075z"/></symbol><symbol id="icon-youtube" viewBox="0 0 32 32"><path d="M16.275 28.063c-3.569-.113-6.963-.2-10.356-.331a11.728 11.728 0 0 1-2.188-.313C2.394 27.106 1.468 26.3.994 24.981c-.381-1.063-.519-2.156-.619-3.269-.219-2.613-.219-5.225-.112-7.838.063-1.475.1-2.963.494-4.394.238-.856.525-1.694 1.219-2.313.731-.656 1.587-1.05 2.563-1.094 2.675-.131 5.344-.294 8.019-.319 3.6-.037 7.206.013 10.806.081 1.556.031 3.125.112 4.669.313 1.413.188 2.469.975 3.031 2.35.431 1.056.594 2.162.688 3.287.244 2.819.25 5.638.113 8.456-.069 1.431-.137 2.869-.544 4.262-.462 1.6-1.444 2.656-3.081 3.019-.637.137-1.3.188-1.95.212-3.4.119-6.794.225-10.012.325zm-3.456-7.107c2.85-1.475 5.669-2.938 8.544-4.431-2.869-1.5-5.688-2.969-8.544-4.463v8.894z"/></symbol><symbol id="icon-logo" viewBox="0 0 32 32"><path d="M29.602 3.752c-2.992.171-8.938.79-12.608 3.041a.84.84 0 0 0-.398.72v19.899c0 .632.69 1.031 1.271.738 3.776-1.904 9.238-2.424 11.939-2.566.922-.048 1.639-.789 1.639-1.677V5.432c0-.969-.838-1.736-1.844-1.68zM14.453 6.794c-3.67-2.252-9.617-2.87-12.608-3.041C.838 3.696 0 4.463 0 5.432v18.476c0 .888.717 1.628 1.639 1.677 2.702.142 8.166.662 11.944 2.568.579.292 1.266-.106 1.266-.737V7.497a.824.824 0 0 0-.393-.703l-.004-.002z"/></symbol></defs></svg>